<svg width="107" height="196" viewBox="0 0 107 196" fill="none" xmlns="http://www.w3.org/2000/svg">
<g clip-path="url(#clip0_38_68)">
<path d="M106.6 103.9V79.9V42.8C106.6 35.9 102.6 29.6 96.5 26.7L51.8 5.5C50.7 5 45.6 2.5 41.9 0V13.2C41.9 15.6 42 18.1 43.4 20C35.4 16.2 29.6 13.4 29 13.2C27.2 12.3 21.2 9.1 18.1 6.3C18.1 10.1 18.1 29.2 18.1 29.2C18.1 32.3 18.8 36.4 21 38.3L13.8 34.9C9.8 33 3.3 27.9 0 21.5V49.5V147.3V147.9C0 158.9 6.1 169.1 16 174.6L53.4 195.6L78.4 181.5L80.2 180.5L82.2 179.4L90.7 174.6C100.5 169.1 106.6 158.8 106.6 147.8V103.9Z" fill="white"/>
<path d="M4.2998 144.5V147.7C4.2998 157.2 9.4998 165.9 18.0998 170.7L53.3998 190.5L77.2998 177C71.7998 155.9 20.2998 152.2 4.2998 144.5Z" fill="#F5A800"/>
<path d="M102.3 105.8C98.5002 112.6 91.8002 116.4 85.1002 118.6C79.7002 120.4 72.4002 122.2 62.3002 124.4C42.5002 128.7 21.3002 134.1 10.2002 140.2C16.2002 143 24.7002 145.3 33.7002 147.6C54.1002 152.9 77.2002 159 81.2002 174.7L88.6002 170.5C97.1002 165.7 102.3 156.9 102.3 147.5V105.8Z" fill="#502C1E"/>
<path d="M43.9 120.1C44.6 118.6 45.4 117.5 45.7 116.6C46.1 115.6 45.9 115.3 44.6 115.2C41.5 114.9 40 114.6 38 114.1C38.5 115.3 40 120 38.2 122.7C39.5 125.1 44 128.8 46.2 130.5C48.1 130.1 50.4 129.7 52.3 129.3C50 128.1 45.7 125.2 44.8 124.4C43.2 123 43 122 43.9 120.1Z" fill="#502C1E"/>
<path d="M87.5002 84.1C88.4002 83.6 89.4002 83 90.4002 82.4C88.0002 82.9 86.0002 81.2 82.7002 80.3C79.9002 79.5 77.7002 80.7 76.5002 82.7C76.2002 83.1 75.6002 83.2 75.3002 82.8C69.4002 76.3 61.8002 76.6 55.4002 82.2C47.0002 89.5 41.1002 93.1 36.5002 95.5C31.3002 98.2 29.8002 100.6 28.8002 102.9C27.0002 101.8 25.5002 102.1 24.6002 102.7C23.1002 103.7 22.5002 105.5 21.9002 107.1C20.8002 110 17.7002 115 14.2002 115.1C18.9002 116.7 21.1002 115.6 22.6002 113.1C23.6002 111.3 23.4002 109.1 23.8002 107.1C24.1002 105.3 25.7002 103.2 28.1002 104.8C27.3002 107.2 26.8002 111 27.1002 113.7C27.5002 117 27.7002 122.9 26.5002 124.4C26.6002 127.9 26.3002 129.8 25.1002 132.2C24.2002 134 23.7002 136 24.1002 137.2C25.5002 137.3 27.6002 135.3 29.2002 134.8C28.8002 132.8 28.5002 130.4 29.2002 128.1C31.0002 122 34.1002 121.5 35.9002 115.3C36.7002 112.6 37.6002 113 39.8002 113.4C46.4002 114.5 49.3002 114.1 54.0002 111.8C53.5002 115.6 53.9002 122 59.4002 125.1C61.5002 126.3 61.5002 126.7 62.4002 126.5C62.9002 126.4 66.8002 126.8 65.2002 125C62.9002 122.5 62.4002 119.6 62.5002 117.7C62.5002 114.9 64.2002 112.6 65.6002 112C67.1002 114.1 68.9002 115.3 70.1002 115.6C71.1002 115.9 72.3002 115.9 72.9002 116C73.5002 116 73.7002 116.3 73.5002 116.8C73.1002 117.8 71.9002 118.4 71.4002 119.1C70.0002 120.9 70.4002 123.5 72.5002 124.9C72.8002 123 75.5002 119.7 76.4002 118.6C78.0002 116.7 79.1002 115.9 78.4002 114.1C77.7002 112.5 76.6002 110.5 74.4002 108.2C73.1002 108.2 70.9002 108.9 70.7002 109C74.7002 105.6 79.1002 105.5 81.1002 106C83.3002 106.5 84.7002 108 84.5002 110.1C86.0002 108.5 86.9002 105.5 87.1002 102.6C88.2002 102.1 89.1002 101.6 89.4002 101.2C89.7002 100.9 89.9002 100.3 89.9002 99.5C89.9002 96.9 91.5002 93.4 91.5002 91.1C91.4002 87.7 89.6002 85.4 87.5002 84.1Z" fill="#502C1E"/>
<path d="M86.9004 93.3C86.9004 93.3 86.9004 92.1 86.6004 91.8C86.3004 91.5 85.8004 91.5 85.5004 91.8C85.2004 92.1 85.2004 92.6 85.5004 93C85.8004 93.3 86.9004 93.3 86.9004 93.3Z" fill="white"/>
<path d="M81.6996 83.1C81.9996 82.9 82.2996 82.7 82.5996 82.5C82.5996 82.5 82.3996 82.7 82.1996 83.1C81.5996 84.2 80.3996 86.6 82.1996 88.8C83.0996 89.8 81.8996 90.6 80.6996 90C79.9996 89.6 77.4996 86.2 81.6996 83.1Z" fill="white"/>
<path d="M91.0005 141.6C86.1005 135.5 83.1005 133.6 84.3005 126.5C81.4005 129.4 79.3005 132.1 79.4005 137.3C79.4005 142.2 84.8005 146.9 86.9005 151.6C88.0005 153.9 88.1005 156.3 87.2005 158.6C87.4005 156.6 85.8005 154.7 84.3005 153.3C82.2005 151.5 81.4005 151.3 79.3005 148.5C78.2005 147 77.4005 144.9 77.7005 142C76.5005 144.5 75.4005 147.9 75.5005 149.8C75.5005 158.7 85.6005 157.8 83.8005 163.2C92.6005 160 94.8005 154 94.7005 150.4C94.6005 146.8 93.1005 144.1 91.0005 141.6Z" fill="#F5A800"/>
<path d="M102.3 51C100.2 47.1 91.3002 42.5 80.5002 37.3C69.7002 32.2 53.3002 24.4 53.3002 24.4C48.9002 22.3 46.2002 17.9 46.2002 13.1V7.20001C47.1002 7.90001 48.5002 8.60001 50.5002 9.50001C52.5002 10.4 94.7002 30.4 94.7002 30.4C99.4002 32.6 102.3 37.5 102.3 42.6V51Z" fill="#00A0DF"/>
<path d="M22.4004 14.2V26.2C22.4004 31.2 25.3004 35.8 29.8004 38C29.8004 38 64.4004 54.4 75.2004 59.5C85.6004 64.4 98.4004 72.2 102.3 80V63.1C102.3 55.6 98.0004 50.7 91.2004 47.5C91.2004 47.5 29.1004 18.1 27.2004 17.1C25.2004 16.1 23.5004 15.2 22.4004 14.2Z" fill="#345D9D"/>
<path d="M43.3998 70.6C43.3998 70.6 6.8998 53.3 6.1998 53C5.4998 52.7 4.7998 52.1 4.2998 51.6V100.8C7.8998 93.5 13.3998 89.6 23.9998 86.9C31.7998 84.9 39.2998 83 42.6998 82.1C48.7998 79.9 48.4998 73.1 43.3998 70.6Z" fill="#345D9D"/>
<path d="M47.3004 55.4C35.3004 49.7 16.0004 40.5 12.0004 38.6C8.00039 36.7 5.60039 34.7 4.40039 32.1V41.7C4.40039 44.9 6.30039 47.9 9.20039 49.3L44.3004 65.9C46.5004 66.9 50.2004 69.5 50.2004 74.4C50.2004 76.9 49.0004 79 47.8004 80.4C57.6004 75.5 59.3004 61.1 47.3004 55.4Z" fill="#00A0DF"/>
</g>
<defs>
<clipPath id="clip0_38_68">
<rect width="107" height="196" fill="white"/>
</clipPath>
</defs>
</svg>
